<svg width="138" height="35" viewBox="0 0 138 35" fill="none" xmlns="http://www.w3.org/2000/svg">
<path d="M29.6636 3.9551V12.2761C29.6635 12.3904 29.6892 12.5033 29.739 12.6062C29.7887 12.7092 29.8611 12.7995 29.9508 12.8704C30.0405 12.9413 30.145 12.991 30.2567 13.0156C30.3683 13.0403 30.4841 13.0394 30.5953 13.0129C32.1391 12.641 33.7213 12.4527 35.3093 12.4518C40.3458 12.4518 42.8642 14.9563 42.8646 19.9651V34.1894C42.8646 34.3908 42.7846 34.584 42.6422 34.7264C42.4998 34.8689 42.3067 34.9489 42.1053 34.9489H35.8987C35.6972 34.9489 35.5041 34.8689 35.3617 34.7264C35.2193 34.584 35.1393 34.3908 35.1393 34.1894V20.9838C35.1393 19.8798 34.9554 19.1371 34.5877 18.7554C34.2194 18.3732 33.6817 18.1821 32.9748 18.1821C32.0456 18.2061 31.1236 18.3509 30.2319 18.6129C30.0695 18.6561 29.9259 18.7516 29.8232 18.8846C29.7205 19.0176 29.6644 19.1807 29.6636 19.3487V34.1894C29.6636 34.3908 29.5837 34.584 29.4413 34.7264C29.2989 34.8688 29.1058 34.9489 28.9044 34.9489H22.9525C22.7511 34.9489 22.558 34.8689 22.4156 34.7264C22.2732 34.584 22.1932 34.3909 22.1932 34.1894V4.32708C22.1932 4.13389 22.2668 3.94798 22.3991 3.80719C22.5314 3.66639 22.7124 3.5813 22.9052 3.56923L28.8569 3.19726C28.9604 3.19078 29.0641 3.20557 29.1617 3.24073C29.2593 3.27588 29.3486 3.33065 29.4242 3.40166C29.4998 3.47267 29.56 3.55841 29.6012 3.65359C29.6424 3.74878 29.6636 3.85139 29.6636 3.9551H29.6636ZM20.1134 15.8567C20.1134 10.0825 17.1533 7.1953 11.233 7.19522C8.32325 7.19649 5.43752 7.72216 2.7142 8.74702C2.54115 8.81315 2.39831 8.94037 2.31267 9.10465C2.22703 9.26892 2.20452 9.45888 2.24939 9.63862L3.12179 13.1899C3.14565 13.2887 3.18925 13.3818 3.24998 13.4634C3.3107 13.545 3.3873 13.6134 3.47517 13.6646C3.56303 13.7159 3.66034 13.7488 3.76126 13.7615C3.86218 13.7741 3.96461 13.7662 4.06241 13.7383C5.78204 13.2459 7.5632 13.0018 9.3519 13.0133C10.4306 13.0133 11.2399 13.2174 11.7798 13.6256C12.3192 14.0346 12.589 14.8075 12.589 15.9442V16.4202C12.5883 16.5336 12.5624 16.6455 12.513 16.7477C12.4636 16.8498 12.392 16.9396 12.3035 17.0106C12.215 17.0816 12.1117 17.1319 12.0013 17.158C11.8908 17.184 11.776 17.1851 11.6651 17.1611C10.5711 16.9521 9.45915 16.8523 8.34548 16.8631C5.9834 16.8631 4.02219 17.4318 2.46183 18.5692C0.90117 19.7064 0.120927 21.5146 0.121094 23.9937C0.121094 28.6308 3.48959 30.9494 10.2266 30.9494C13.8337 30.9494 16.9727 30.4165 19.6438 29.3508C19.7834 29.2937 19.9027 29.1961 19.9864 29.0706C20.0701 28.9452 20.1143 28.7975 20.1134 28.6467V15.8567H20.1134ZM7.33945 23.8188C7.36824 22.8276 7.67449 22.0985 8.2582 21.6314C8.89823 21.1464 9.68695 20.8991 10.4893 20.9316C11.0147 20.9284 11.538 20.9979 12.0444 21.138C12.2023 21.1842 12.3408 21.2805 12.4391 21.4124C12.5374 21.5443 12.59 21.7046 12.589 21.8691V25.4231C12.5906 25.5952 12.5332 25.7626 12.4264 25.8974C12.3195 26.0323 12.1697 26.1264 12.0018 26.1642C11.4896 26.2673 10.9681 26.317 10.4456 26.3125C8.3744 26.3125 7.33902 25.4812 7.33944 23.8188L7.33945 23.8188ZM64.9246 15.8567C64.9246 10.0825 61.9645 7.19531 56.0442 7.19522C53.1344 7.19651 50.2487 7.72218 47.5254 8.74703C47.3523 8.81316 47.2095 8.94039 47.1238 9.10466C47.0382 9.26894 47.0157 9.45889 47.0606 9.63863L47.933 13.1899C47.9568 13.2888 48.0004 13.3818 48.0611 13.4634C48.1219 13.545 48.1985 13.6134 48.2863 13.6647C48.3742 13.7159 48.4715 13.7488 48.5724 13.7615C48.6734 13.7741 48.7758 13.7663 48.8736 13.7383C50.5932 13.2459 52.3744 13.0018 54.1631 13.0133C55.2417 13.0133 56.051 13.2174 56.591 13.6256C57.1304 14.0346 57.4002 14.8075 57.4002 15.9443V16.4202C57.3995 16.5337 57.3735 16.6455 57.3241 16.7477C57.2747 16.8498 57.2032 16.9397 57.1146 17.0106C57.0261 17.0816 56.9229 17.132 56.8125 17.158C56.702 17.184 56.5872 17.1851 56.4763 17.1611C55.3823 16.9522 54.2703 16.8523 53.1567 16.8631C50.7946 16.8631 48.8334 17.4318 47.273 18.5692C45.7123 19.7065 44.9321 21.5146 44.9323 23.9937C44.9323 28.6308 48.3008 30.9494 55.0378 30.9494C58.6448 30.9494 61.7839 30.4165 64.455 29.3508C64.5946 29.2937 64.7139 29.1961 64.7976 29.0707C64.8813 28.9452 64.9255 28.7975 64.9246 28.6467V15.8567L64.9246 15.8567ZM52.1506 23.8188C52.1794 22.8276 52.4857 22.0985 53.0694 21.6314C53.7094 21.1464 54.4981 20.8991 55.3005 20.9316C55.8259 20.9284 56.3492 20.9979 56.8556 21.138C57.0135 21.1842 57.152 21.2805 57.2503 21.4124C57.3485 21.5443 57.4012 21.7046 57.4002 21.8691V25.4231C57.4018 25.5952 57.3444 25.7626 57.2375 25.8974C57.1307 26.0323 56.9809 26.1264 56.813 26.1642C56.3008 26.2673 55.7792 26.317 55.2568 26.3125C53.1856 26.3125 52.1502 25.4812 52.1506 23.8188V23.8188ZM38.3857 10.0977L45.6321 2.91003C45.6669 2.87551 45.6945 2.83441 45.7133 2.78913C45.7321 2.74385 45.7417 2.69528 45.7415 2.64626C45.7413 2.59724 45.7314 2.54874 45.7124 2.50359C45.6933 2.45843 45.6654 2.41751 45.6304 2.38322L43.7719 0.564025C43.7355 0.528462 43.6923 0.500775 43.6448 0.482689C43.5972 0.464603 43.5465 0.456507 43.4957 0.458909C43.4449 0.461312 43.3952 0.474161 43.3496 0.496653C43.304 0.519144 43.2635 0.550796 43.2307 0.58963L37.4394 7.35152L34.1094 3.33177C34.077 3.29177 34.0366 3.25897 33.9908 3.23548C33.945 3.21198 33.8948 3.1983 33.8434 3.19532C33.7921 3.19233 33.7406 3.2001 33.6924 3.21814C33.6442 3.23617 33.6003 3.26406 33.5635 3.30004L31.8546 4.97041C31.8195 5.00469 31.7916 5.04561 31.7725 5.09079C31.7534 5.13596 31.7435 5.18449 31.7433 5.23354C31.7431 5.28259 31.7527 5.33118 31.7715 5.37649C31.7903 5.4218 31.8179 5.46292 31.8527 5.49745L36.4928 10.0979C36.666 10.2696 36.8999 10.3659 37.1437 10.3659H37.7347C37.9786 10.3659 38.2126 10.2695 38.3858 10.0977L38.3857 10.0977Z" fill="#F47929"/>
<path d="M80.3357 17.0466V19.5972H86.2025C85.7318 21.7749 84.1722 23.6563 81.3749 23.6563C78.1069 23.6563 75.6812 21.1312 75.6812 17.6903C75.6812 14.2012 78.1069 11.7258 81.3749 11.7258C82.2116 11.7309 83.0352 11.9329 83.7793 12.3154C84.5234 12.6979 85.167 13.2501 85.658 13.9275L88.0087 12.5665C86.6973 10.6851 84.5933 9.15112 81.3749 9.15112C76.5729 9.15112 72.7109 12.4928 72.7109 17.6903C72.7109 22.8637 76.573 26.255 81.1268 26.255C86.3258 26.255 89.3456 22.6411 89.3456 17.0466H80.3357Z" fill="url(#paint0_linear_33324_1064)"/>
<path d="M113.933 23.4088V9.448H111.036V25.9579H121.21V23.4088H113.933Z" fill="url(#paint1_linear_33324_1064)"/>
<path d="M129.213 9.448H123.074V25.9579H129.239C134.387 25.9579 137.853 22.5666 137.853 17.6909C137.853 12.8634 134.387 9.448 129.213 9.448ZM129.213 23.4088H125.971V11.9971H129.239C132.902 11.9971 134.883 14.5222 134.883 17.6909C134.883 20.8341 132.803 23.4088 129.213 23.4088Z" fill="url(#paint2_linear_33324_1064)"/>
<path d="M100.192 26.6854C105.153 26.6854 109.174 22.6639 109.174 17.7033C109.174 12.7426 105.153 8.72119 100.192 8.72119C95.2314 8.72119 91.21 12.7426 91.21 17.7033C91.21 22.6639 95.2314 26.6854 100.192 26.6854Z" fill="url(#paint3_linear_33324_1064)"/>
<path d="M99.9434 20.9394L104.949 15.9748C104.973 15.9509 104.992 15.9226 105.005 15.8913C105.018 15.86 105.024 15.8265 105.024 15.7926C105.024 15.7587 105.017 15.7252 105.004 15.6941C104.991 15.6629 104.972 15.6346 104.947 15.6109L103.664 14.3544C103.639 14.3298 103.609 14.3107 103.576 14.2982C103.543 14.2857 103.508 14.2801 103.473 14.2818C103.438 14.2834 103.404 14.2923 103.372 14.3079C103.341 14.3234 103.313 14.3452 103.29 14.3721L99.2898 19.0426L96.9897 16.2661C96.9674 16.2385 96.9395 16.2158 96.9079 16.1996C96.8762 16.1833 96.8416 16.1739 96.8061 16.1718C96.7706 16.1698 96.735 16.1751 96.7018 16.1876C96.6685 16.2 96.6381 16.2193 96.6127 16.2442L95.4324 17.3979C95.4081 17.4216 95.3889 17.4498 95.3757 17.481C95.3625 17.5122 95.3556 17.5458 95.3555 17.5796C95.3553 17.6135 95.362 17.6471 95.3749 17.6784C95.3879 17.7097 95.407 17.7381 95.4311 17.7619L98.636 20.9395C98.7556 21.0581 98.9172 21.1246 99.0856 21.1246H99.4938C99.6622 21.1246 99.8239 21.058 99.9434 20.9394Z" fill="#603913"/>
<defs>
<linearGradient id="paint0_linear_33324_1064" x1="77.2746" y1="1.88083" x2="83.4059" y2="28.1041" gradientUnits="userSpaceOnUse">
<stop stop-color="#BE965D"/>
<stop offset="0.1555" stop-color="#976F40"/>
<stop offset="0.2438" stop-color="#C99B61"/>
<stop offset="0.32313" stop-color="#F0BE7B"/>
<stop offset="0.36447" stop-color="#FFCB85"/>
<stop offset="0.50278" stop-color="#EEBC79"/>
<stop offset="0.77705" stop-color="#C0935B"/>
<stop offset="1" stop-color="#976F40"/>
</linearGradient>
<linearGradient id="paint1_linear_33324_1064" x1="3280.24" y1="5270.38" x2="3605.6" y2="6484.83" gradientUnits="userSpaceOnUse">
<stop stop-color="#BE965D"/>
<stop offset="0.1555" stop-color="#976F40"/>
<stop offset="0.2438" stop-color="#C99B61"/>
<stop offset="0.32313" stop-color="#F0BE7B"/>
<stop offset="0.36447" stop-color="#FFCB85"/>
<stop offset="0.50278" stop-color="#EEBC79"/>
<stop offset="0.77705" stop-color="#C0935B"/>
<stop offset="1" stop-color="#976F40"/>
</linearGradient>
<linearGradient id="paint2_linear_33324_1064" x1="5453.27" y1="5173.85" x2="5938.88" y2="6754.04" gradientUnits="userSpaceOnUse">
<stop stop-color="#BE965D"/>
<stop offset="0.1555" stop-color="#976F40"/>
<stop offset="0.2438" stop-color="#C99B61"/>
<stop offset="0.32313" stop-color="#F0BE7B"/>
<stop offset="0.36447" stop-color="#FFCB85"/>
<stop offset="0.50278" stop-color="#EEBC79"/>
<stop offset="0.77705" stop-color="#C0935B"/>
<stop offset="1" stop-color="#976F40"/>
</linearGradient>
<linearGradient id="paint3_linear_33324_1064" x1="1455.39" y1="2267.37" x2="2377.23" y2="3715.97" gradientUnits="userSpaceOnUse">
<stop stop-color="#BE965D"/>
<stop offset="0.1555" stop-color="#976F40"/>
<stop offset="0.2438" stop-color="#C99B61"/>
<stop offset="0.32313" stop-color="#F0BE7B"/>
<stop offset="0.36447" stop-color="#FFCB85"/>
<stop offset="0.50278" stop-color="#EEBC79"/>
<stop offset="0.77705" stop-color="#C0935B"/>
<stop offset="1" stop-color="#976F40"/>
</linearGradient>
</defs>
</svg>
